<mxfile host="app.diagrams.net" modified="2024-08-28T14:34:00.509Z" agent="Mozilla/5.0 (Windows NT 10.0; Win64; x64) AppleWebKit/537.36 (KHTML, like Gecko) Chrome/128.0.0.0 Safari/537.36 Edg/128.0.0.0" version="24.7.2" etag="Gk2Ai5DFA7C6h-6R8Ldc" type="github">
  <diagram name="Halaman-1" id="oiHNoUBKU6A7XsE5XaSo">
    <mxGraphModel>
      <root>
        <mxCell id="0" />
        <mxCell id="1" parent="0" />
      </root>
    </mxGraphModel>
  </diagram>
</mxfile>
